<svg width="44" height="41" viewBox="0 0 44 41" fill="none" xmlns="http://www.w3.org/2000/svg">
<path d="M30.9933 28.799L29.6416 30.3984L32.9911 33.2289L34.3428 31.6294L30.9933 28.799Z" fill="white"/>
<path d="M30.9775 28.6348L29.4639 30.423L33.0043 33.4139L34.5179 31.6256L30.9775 28.6348ZM29.8215 30.3919L31.0086 28.9872L34.1654 31.6567L32.9784 33.0614L29.8215 30.3919Z" fill="white"/>
<path d="M35.4067 31.347L32.8906 34.3242L35.0603 36.1576L37.5763 33.1804L35.4067 31.347Z" fill="white"/>
<path d="M35.3928 31.1797L32.7129 34.3519L35.0714 36.3476L37.7514 33.1753L35.3928 31.1797ZM33.0654 34.3208L35.4187 31.5373L37.3989 33.2064L35.0455 35.9899L33.0654 34.3208Z" fill="white"/>
<path d="M40.853 35.9525L38.3369 38.9297L40.5066 40.7631L43.0226 37.7859L40.853 35.9525Z" fill="white"/>
<path d="M40.8411 35.7832L38.1611 38.9555L40.5197 40.9511L43.1996 37.7788L40.8411 35.7832ZM38.5136 38.9244L40.867 36.1409L42.842 37.8099L40.4886 40.5934L38.5136 38.9244Z" fill="white"/>
<path d="M38.0532 33.5911L35.5371 36.5684L36.4517 37.3412L38.9677 34.364L38.0532 33.5911Z" fill="white"/>
<path d="M38.0422 33.418L35.3623 36.5902L36.4716 37.5284L39.1515 34.3562L38.0422 33.418ZM35.72 36.5591L38.0733 33.7756L38.7939 34.3873L36.4405 37.1708L35.72 36.5591Z" fill="white"/>
<path d="M39.4555 34.7669L36.9395 37.7441L37.854 38.517L40.3701 35.5398L39.4555 34.7669Z" fill="white"/>
<path d="M39.4417 34.5996L36.7617 37.7719L37.871 38.7101L40.551 35.5378L39.4417 34.5996ZM37.1142 37.7408L39.4728 34.9573L40.1933 35.5689L37.8399 38.3524L37.1142 37.7408Z" fill="white"/>
<path d="M33.7765 15.1408C33.7143 14.5758 33.621 14.016 33.507 13.4717C33.4033 12.9845 33.2737 12.5024 33.1338 12.0307C33.0768 11.8389 33.0146 11.6523 32.9472 11.4657C32.6984 10.7297 32.3925 10.0196 32.0452 9.33534C31.7497 8.74443 31.4128 8.16907 31.05 7.61963C29.2305 4.86723 26.6387 2.67464 23.5855 1.36324C23.1294 1.17145 22.668 0.995218 22.1911 0.839715C21.7402 0.689396 21.2892 0.559811 20.8278 0.450959C19.5786 0.160687 18.2775 0 16.9453 0C13.3064 0 9.9422 1.1559 7.17933 3.12042C6.775 3.40551 6.38623 3.71133 6.01301 4.0327C5.89897 4.126 5.79011 4.22449 5.68126 4.32297C5.27175 4.68581 4.88298 5.07457 4.51494 5.47369C1.71059 8.52154 0 12.6061 0 17.0897C0 17.5459 0.0155462 17.9968 0.0518316 18.4426C0.088117 18.9298 0.145138 19.4015 0.222892 19.868C0.243627 19.9976 0.264364 20.1324 0.290282 20.2568C0.362853 20.6559 0.450975 21.0499 0.549464 21.4334C1.82464 26.3266 5.18882 30.3645 9.63119 32.5104C10.1496 32.7592 10.6835 32.9873 11.2329 33.1842C11.4973 33.2827 11.7668 33.3709 12.0364 33.4486C12.4459 33.573 12.8658 33.687 13.2908 33.7803C14.4675 34.0447 15.6909 34.1795 16.9453 34.1795C20.4339 34.1795 23.6788 33.1117 26.3743 31.2923C26.8408 30.9761 27.2866 30.6392 27.7169 30.2763C27.9761 30.069 28.2249 29.8461 28.4685 29.6181C28.8262 29.2811 29.1735 28.9287 29.5 28.5606C32.2266 25.5335 33.8854 21.506 33.8854 17.0897C33.8854 16.4314 33.8491 15.7835 33.7765 15.1408ZM29.0957 26.6998C28.7795 27.1041 28.4374 27.4877 28.0849 27.8557C27.4473 28.514 26.7527 29.1153 26.0115 29.6543C25.5398 29.9913 25.0525 30.3074 24.5445 30.5925C22.3 31.8625 19.7082 32.583 16.9453 32.583C16.2092 32.583 15.4783 32.5363 14.7734 32.4327C14.312 32.3653 13.8558 32.2823 13.4049 32.1787C12.534 31.9713 11.6943 31.6966 10.8908 31.3545C10.331 31.1161 9.7867 30.8465 9.26315 30.5459C6.01301 28.6902 3.50413 25.689 2.2808 22.0917C2.14084 21.6822 2.02162 21.2727 1.91276 20.8477C1.7417 20.1583 1.61729 19.4534 1.53954 18.7277C1.4877 18.2404 1.4566 17.7377 1.4566 17.2349V17.0897C1.4566 13.4147 2.73695 10.0351 4.87779 7.37601C5.24065 6.93023 5.62424 6.50001 6.02856 6.10089C6.56766 5.56699 7.13786 5.07457 7.74435 4.62361C8.16422 4.31779 8.59446 4.02752 9.04544 3.76316C11.3573 2.38437 14.0632 1.59649 16.9505 1.59649C17.7488 1.59649 18.5367 1.65869 19.3038 1.77791C19.8015 1.85048 20.2887 1.94896 20.7708 2.06818H20.776C21.4032 2.23405 22.0149 2.43102 22.611 2.66428C23.0879 2.85088 23.5544 3.0634 24.0054 3.29665H24.0106C26.3017 4.46811 28.2612 6.19937 29.7126 8.30902C30.0858 8.8481 30.4227 9.41309 30.7234 10.004C30.967 10.4653 31.1795 10.9422 31.3713 11.4294C31.4595 11.6523 31.5476 11.8804 31.6253 12.1137C31.7135 12.3728 31.7964 12.6372 31.869 12.9067C32.0297 13.4769 32.1541 14.0574 32.2474 14.6483C32.3407 15.2133 32.3977 15.7887 32.4236 16.3744C32.434 16.6129 32.4392 16.8513 32.4392 17.0897C32.4392 20.7181 31.1899 24.0614 29.1009 26.6998H29.0957Z" fill="white"/>
<path fill-rule="evenodd" clip-rule="evenodd" d="M16.9982 2.52344C25.095 2.52344 31.6575 9.08565 31.6575 17.1821C31.6575 25.2786 25.095 31.8357 16.9982 31.8357C8.90135 31.8357 2.33887 25.2735 2.33887 17.1821C2.33887 9.09083 8.90135 2.52344 16.9982 2.52344ZM14.9195 10.6096C14.8003 10.7495 14.8366 10.5837 14.847 10.848C15.2306 10.8739 15.0543 10.8584 15.1528 10.7443L14.9195 10.6096ZM15.1528 10.7495L15.1735 10.5888L15.0647 10.5422H15.0543H14.9766L15.158 10.7547L15.1528 10.7495ZM4.33457 12.2268C4.33457 12.3253 4.3242 12.429 4.3242 12.5326C5.54754 13.0043 4.45898 13.165 5.07064 14.1965C5.35056 14.6682 5.27799 14.8496 5.91039 14.8755C5.94668 14.3935 5.82745 14.352 5.58901 13.9995C5.4335 13.7715 5.25207 13.222 5.38685 12.9628C5.91039 12.9628 5.56309 13.5227 5.88447 13.9736C6.01406 14.155 6.48059 14.7563 6.46504 14.917C6.43394 15.2798 6.14365 15.1658 6.73459 15.8811C6.94711 16.1403 7.54842 16.1558 7.89054 16.2802C8.23266 16.1766 7.75577 16.0729 8.40891 16.161L8.46593 16.3735C8.55405 16.5964 8.79768 16.5861 9.04649 16.6483C9.70999 16.8141 9.79812 17.4465 10.2698 17.6642C10.4409 17.7471 11.0629 17.7523 11.2858 17.7575L11.3791 18.6646C11.151 18.7683 10.8452 18.9963 10.6482 19.1259C10.6379 19.5095 10.6327 19.7635 10.5653 20.1056C10.4409 20.7587 11.4828 21.0853 11.6279 22.1271C12.2241 22.2723 12.5403 22.5262 12.8927 22.858V25.0869C12.986 25.3512 12.9549 25.1128 13.1727 25.346C12.9757 26.0613 12.8927 26.2842 13.2919 26.7663C13.6962 27.2535 13.1623 27.7511 13.494 28.3369C13.9295 29.104 14.5774 30.2184 15.6504 29.9023C15.7593 29.5083 15.3291 29.4098 15.1321 29.1558L15.3135 28.3006C14.8159 28.2695 14.8936 28.3628 14.707 28.0362C14.8625 27.7511 14.961 27.8911 15.0491 27.5127C14.9195 27.3676 14.8003 27.4142 14.707 27.2483C14.8262 26.9529 14.7796 27.2483 15.8059 26.7715C16.2517 26.5641 16.2362 26.279 16.5317 25.9214C17.9261 24.2316 16.5731 24.978 17.2833 23.7236C17.8794 23.7236 17.9209 23.8843 18.3563 23.5474C18.9835 23.055 18.4755 22.0546 18.9835 21.417C19.3101 21.0127 19.336 21.0904 19.4863 20.4892C19.2893 20.3078 19.1131 20.3855 18.9317 20.2041C18.7347 20.0071 18.7917 19.8153 18.517 19.6754C18.1386 19.6754 17.6669 19.7272 17.3299 19.6339C17.0345 19.551 16.7338 19.3903 16.428 19.297C16.3865 18.6853 16.3917 18.4313 16.0237 18.0322L15.1528 18.0115C15.0647 17.8145 14.9558 17.6331 14.8159 17.4258C14.6033 17.0992 14.5982 17.2288 14.3027 17.0266L14.1576 17.2703H13.3904C13.012 16.7727 12.815 16.7623 12.1774 16.7105C12.0685 16.9178 11.685 17.3687 11.4983 17.4983L10.4513 17.3117L10.3735 16.0781L9.59077 15.9329C9.74628 15.5183 9.98991 15.4146 9.77738 15.0103C8.89617 15.3783 9.21755 15.7515 8.10306 15.5857C7.89572 15.2643 7.79723 15.0466 7.96829 14.6008C8.47629 13.2739 9.49228 13.4345 10.8193 13.4449L10.8297 13.9632L11.405 14.2069L11.3636 13.3879C11.7679 13.0095 11.8975 12.9006 12.4159 12.5482C12.9394 12.1957 12.2811 12.4186 13.2141 11.4441C13.5977 11.045 14.1057 10.9102 14.3442 10.6718L14.5049 10.4385C14.5049 10.4385 14.5256 10.4126 14.536 10.4022C14.8107 10.0809 14.9662 9.89944 15.355 10.1586L15.5364 9.90981C15.3913 9.83206 15.2202 9.81651 15.0906 9.71284V9.50032C15.5105 9.30335 15.5675 9.40183 15.8163 9.70247C16.3606 9.67655 16.2362 9.64545 16.428 9.5366C16.6457 9.41738 16.2466 9.44849 16.6716 9.45885C16.7131 10.0809 16.4695 9.50032 16.5057 10.0446C16.6664 10.2053 17.2159 10.3452 17.4388 10.3452C17.5788 9.661 17.1485 10.1016 17.0708 9.70247C16.9826 9.23596 17.387 9.76467 17.3507 8.93014L16.9878 8.67615C16.7545 8.48955 16.8271 8.08006 16.8116 7.78979C16.4228 7.90901 16.2569 8.12153 15.8267 8.13189L15.8837 7.49952C14.4167 7.21443 15.2254 7.2248 14.5049 7.54617L14.4893 8.5051C14.2094 8.61395 13.831 8.64505 13.7014 8.84721C13.5044 9.14785 13.6496 9.36555 13.1467 9.3811C13.1467 8.163 13.0949 8.84721 12.3588 8.45327C12.0789 8.30295 12.0374 8.12153 12.0115 7.75869C12.7113 7.43732 12.9498 7.15223 13.7843 6.91897L13.888 7.29218C14.5515 7.31291 13.8776 7.11595 14.6085 7.04338L14.4634 6.79976C14.3908 6.60797 14.4893 7.05893 14.4271 6.67535C15.2513 6.66499 14.8159 6.34361 15.4327 6.25031C16.1273 6.14664 16.1014 6.10518 16.4591 6.5043L15.5001 7.04856C15.8008 7.24553 16.4072 7.32328 16.8271 7.38548C16.9567 6.88269 17.1122 6.95526 17.5684 6.94489L17.7498 6.57687L17.361 6.41618L17.3455 5.92376C16.1481 5.56092 16.0962 5.00111 14.6655 5.73716L14.6966 6.37472C14.4634 6.35398 14.339 6.33843 14.1576 6.23476L14.0954 5.88748C14.2664 5.78899 14.4323 5.66459 14.5308 5.48835C14.256 5.4417 13.3593 5.27583 13.3334 5.71124C13.323 5.88748 13.6703 5.76826 13.5562 6.20366L12.986 6.24513C12.8409 6.55614 12.7632 6.55095 12.0426 6.48357L12.0115 6.02743C12.5921 6.01706 12.8305 6.01188 13.1312 5.5039C12.5143 5.17735 13.1208 5.77344 11.8923 5.70606C11.7886 5.51427 11.6746 5.3795 11.5554 5.19808C10.9281 5.1929 10.7675 5.18253 10.3113 5.51427L10.0106 5.80454H10.6793C10.7675 6.07408 10.6897 6.04816 10.5653 6.24513C11.2029 6.17256 11.3688 6.14146 11.4828 6.50948L10.6379 6.49393C10.4046 6.15701 10.7364 6.35398 10.389 6.2244C10.2957 6.18811 10.1039 6.17256 9.97436 6.12073C9.65297 5.99633 9.53375 5.97559 9.27975 5.96004C7.06634 7.48915 5.32983 9.661 4.33457 12.2009V12.2268ZM14.9714 10.5318C14.8729 10.5266 14.8988 10.5059 14.9247 10.6096L14.9714 10.5318ZM15.4379 10.5318C15.5727 11.1694 16.0029 10.5215 16.0081 10.5163C16.2051 10.3297 16.0755 10.6355 16.2103 10.3348C16.1999 10.3297 16.1947 10.2519 16.0237 10.2726C15.8267 10.2934 15.9355 10.3867 15.6867 10.4696C15.5105 10.5266 15.6349 10.4178 15.4379 10.537V10.5318ZM22.6483 9.4433C23.0475 9.45366 23.0008 9.44848 23.2704 9.25151C23.5399 9.05973 23.6332 9.09083 23.5296 8.7228C22.9801 8.45326 22.6535 8.91977 22.6483 9.4433ZM23.5814 9.61435C24.3849 9.70765 24.5248 9.59362 24.7529 9.28261L24.2501 8.79537C24.0427 8.48436 24.1049 8.30813 23.9598 8.02823C23.3378 8.06451 23.1771 8.41698 23.6851 8.70207C24.2397 9.01308 23.8354 9.08046 23.8354 9.08046C23.654 9.21523 23.7317 9.00271 23.6177 9.26188C23.5866 9.33445 23.5866 9.52105 23.5866 9.60917L23.5814 9.61435ZM26.0644 7.04856C25.9659 7.2559 25.8311 7.18333 25.4993 7.3492C25.2194 7.48915 25.0898 7.64465 25.1469 7.97121C25.5408 8.26666 25.4371 7.89864 25.6652 8.56212L26.2561 8.35478L26.3235 9.00271C25.7689 8.99234 25.3231 8.76945 25.0173 9.22559C24.6492 9.77504 24.7995 9.73357 23.9702 9.82169L23.8665 10.3971L24.1464 10.594L24.0635 10.8947C23.5814 10.8014 23.1978 10.6925 22.7209 10.9206C22.6794 10.962 22.1922 12.1698 23.3015 12.2112C23.6021 12.2216 23.8665 12.1801 24.1568 12.1698C24.2916 11.7447 24.8462 11.0502 24.9032 11.0139C25.1935 10.9309 25.2402 11.0709 25.4371 11.0087C25.5304 10.9776 25.7067 10.7599 25.8052 10.6821C26.1991 11.2057 25.8155 10.8947 26.6864 11.4804C26.8315 11.5789 26.9093 11.5996 26.9508 11.7551C26.7382 11.921 26.7279 11.8277 26.4065 11.864C26.6086 12.2527 26.7641 12.2112 27.2151 12.0195C27.2255 11.5944 27.2048 11.7655 27.324 11.4182C26.5827 11.0502 26.505 11.0813 26.3546 10.4644C26.7901 10.4644 26.8315 10.3919 27.0907 10.6096C28.2674 11.5996 27.0648 11.2264 28.1378 12.1594C28.4903 11.781 28.0497 11.527 28.7495 11.2523C28.8272 12.0246 28.8532 11.7758 29.1331 12.2372L29.667 12.2475C28.8843 10.2364 27.6402 8.46363 26.0592 7.04856H26.0644ZM30.0661 13.4034C29.6825 13.4397 29.159 13.4293 28.9154 13.2583C28.4385 12.9317 28.5007 12.8436 27.7231 12.9784L27.7024 13.3931C27.7024 13.3931 26.0903 12.9006 26.0695 12.8903L26.0384 12.1283C25.0847 12.1128 24.7788 12.1853 24.0998 12.4341C23.3896 12.6985 23.2237 12.1439 22.3477 12.8851C22.3321 13.8699 22.4203 13.5641 21.6116 14.1498C21.368 14.3261 21.0518 14.5904 20.8133 14.7148C20.8911 15.3265 21.0259 15.1502 21.2125 15.3161C21.1088 15.9744 21.0051 15.5286 20.9377 15.8396C20.9377 17.0318 20.746 16.7156 21.3835 17.4309C21.8449 17.9493 22.0522 18.4054 22.5084 18.4054C22.6898 18.4054 22.8142 18.3588 22.9231 18.3432C23.0993 18.3173 23.2496 18.3225 23.4311 18.3225C24.219 18.338 23.8458 18.1981 24.2293 18.0737C25.0484 17.8145 24.3538 18.3899 25.9296 18.4573C25.8466 19.7272 25.6911 19.4058 26.2665 20.4114C26.9041 21.531 26.873 21.163 26.4065 22.0286C25.9607 22.858 26.6449 22.8321 26.7071 23.3141C26.7279 23.4852 26.7019 23.791 26.7071 23.9776C26.7123 24.4648 26.8989 24.4908 27.1114 24.8225C27.3447 25.1905 27.1633 25.4653 27.2618 25.9162L27.3965 25.9266C29.3871 23.5629 30.5897 20.5047 30.5897 17.1718C30.5897 15.8604 30.4031 14.5956 30.0558 13.3982L30.0661 13.4034Z" fill="white"/>
</svg>
