<svg width="39" height="37" viewBox="0 0 39 37" fill="none" xmlns="http://www.w3.org/2000/svg">
<path d="M27.5492 25.6017L26.3477 27.0234L29.325 29.5394L30.5265 28.1176L27.5492 25.6017Z" fill="#003366"/>
<path d="M27.5359 25.4551L26.1904 27.0447L29.3375 29.7032L30.6829 28.1136L27.5359 25.4551ZM26.5084 27.017L27.5635 25.7684L30.3696 28.1412L29.3144 29.3899L26.5084 27.017Z" fill="#003366"/>
<path d="M31.4718 27.8653L29.2354 30.5117L31.1639 32.1414L33.4004 29.495L31.4718 27.8653Z" fill="#003366"/>
<path d="M31.4603 27.7148L29.0781 30.5346L31.1746 32.3085L33.5568 29.4887L31.4603 27.7148ZM29.3914 30.507L31.4833 28.0328L33.2435 29.5164L31.1516 31.9906L29.3914 30.507Z" fill="#003366"/>
<path d="M36.3136 31.9591L34.0771 34.6055L36.0057 36.2352L38.2422 33.5888L36.3136 31.9591Z" fill="#003366"/>
<path d="M36.3031 31.8086L33.9209 34.6284L36.0174 36.4023L38.3996 33.5825L36.3031 31.8086ZM34.2342 34.6007L36.3261 32.1265L38.0816 33.6101L35.9897 36.0843L34.2342 34.6007Z" fill="#003366"/>
<path d="M33.8254 29.8614L31.5889 32.5078L32.4018 33.1948L34.6383 30.5484L33.8254 29.8614Z" fill="#003366"/>
<path d="M33.8148 29.7051L31.4326 32.5249L32.4187 33.3588L34.8008 30.539L33.8148 29.7051ZM31.7505 32.4972L33.8424 30.023L34.4829 30.5667L32.391 33.0409L31.7505 32.4972Z" fill="#003366"/>
<path d="M35.0705 30.9044L32.834 33.5508L33.6469 34.2378L35.8834 31.5913L35.0705 30.9044Z" fill="#003366"/>
<path d="M35.0589 30.7539L32.6768 33.5737L33.6628 34.4076L36.045 31.5879L35.0589 30.7539ZM32.9901 33.546L35.0866 31.0718L35.727 31.6155L33.6352 34.0897L32.9901 33.546Z" fill="#003366"/>
<path d="M30.0236 13.4585C29.9683 12.9562 29.8854 12.4586 29.784 11.9748C29.6918 11.5417 29.5767 11.1132 29.4522 10.694C29.4016 10.5235 29.3463 10.3576 29.2864 10.1918C29.0652 9.53749 28.7933 8.90627 28.4846 8.29808C28.222 7.77283 27.9225 7.2614 27.6 6.773C25.9827 4.32643 23.6788 2.37746 20.9649 1.21177C20.5594 1.04129 20.1494 0.884638 19.7254 0.746414C19.3246 0.612797 18.9237 0.497609 18.5136 0.400852C17.4032 0.142833 16.2467 0 15.0625 0C11.8279 0 8.83751 1.02747 6.38162 2.77371C6.02223 3.02712 5.67665 3.29896 5.3449 3.58462C5.24353 3.66756 5.14677 3.7551 5.05001 3.84264C4.686 4.16517 4.34042 4.51073 4.01328 4.8655C1.52053 7.5747 0 11.2054 0 15.1909C0 15.5963 0.0138188 15.9972 0.0460725 16.3934C0.0783262 16.8265 0.129011 17.2458 0.198127 17.6605C0.216557 17.7757 0.23499 17.8955 0.258029 18.006C0.322536 18.3608 0.400866 18.711 0.488412 19.0519C1.6219 23.4014 4.61228 26.9906 8.56106 28.8981C9.02183 29.1193 9.49641 29.322 9.98483 29.4971C10.2198 29.5847 10.4594 29.663 10.699 29.7321C11.063 29.8427 11.4362 29.944 11.8141 30.027C12.86 30.262 13.9474 30.3817 15.0625 30.3817C18.1635 30.3817 21.0478 29.4326 23.4438 27.8154C23.8585 27.5343 24.2548 27.2348 24.6372 26.9123C24.8676 26.728 25.0888 26.5299 25.3053 26.3272C25.6233 26.0277 25.932 25.7144 26.2223 25.3872C28.6459 22.6965 30.1204 19.1164 30.1204 15.1909C30.1204 14.6057 30.0881 14.0298 30.0236 13.4585ZM25.8629 23.7331C25.5818 24.0925 25.2777 24.4335 24.9644 24.7606C24.3976 25.3458 23.7802 25.8802 23.1213 26.3594C22.702 26.6589 22.2689 26.94 21.8173 27.1934C19.8222 28.3222 17.5184 28.9626 15.0625 28.9626C14.4082 28.9626 13.7585 28.9212 13.1319 28.829C12.7218 28.7691 12.3163 28.6954 11.9154 28.6033C11.1414 28.419 10.3949 28.1748 9.68072 27.8707C9.18309 27.6587 8.69929 27.4191 8.23391 27.1519C5.3449 25.5024 3.11478 22.8347 2.02737 19.6371C1.90297 19.2731 1.79699 18.9091 1.70023 18.5313C1.54818 17.9185 1.43759 17.2919 1.36848 16.6468C1.3224 16.2137 1.29476 15.7668 1.29476 15.3199V15.1909C1.29476 11.9242 2.43285 8.92009 4.33582 6.55645C4.65835 6.16021 4.99932 5.77779 5.35872 5.42301C5.83792 4.94844 6.34477 4.51073 6.88387 4.10987C7.25709 3.83803 7.63952 3.58002 8.04039 3.34503C10.0954 2.11944 12.5006 1.41911 15.0671 1.41911C15.7767 1.41911 16.477 1.47439 17.159 1.58037C17.6013 1.64487 18.0344 1.73241 18.4629 1.83838H18.4676C19.0251 1.98582 19.5688 2.16091 20.0987 2.36825C20.5226 2.53412 20.9373 2.72302 21.3381 2.93036H21.3427C23.3793 3.97165 25.121 5.51055 26.4112 7.3858C26.7429 7.86498 27.0424 8.36719 27.3097 8.89244C27.5262 9.30251 27.7152 9.7264 27.8856 10.1595C27.964 10.3576 28.0423 10.5604 28.1114 10.7677C28.1897 10.9981 28.2635 11.233 28.328 11.4726C28.4708 11.9795 28.5814 12.4955 28.6643 13.0207C28.7473 13.523 28.798 14.0344 28.821 14.555C28.8302 14.767 28.8348 14.9789 28.8348 15.1909C28.8348 18.4161 27.7244 21.3879 25.8675 23.7331H25.8629Z" fill="#003366"/>
<path fill-rule="evenodd" clip-rule="evenodd" d="M15.1086 2.24414C22.3058 2.24414 28.1391 8.07721 28.1391 15.2741C28.1391 22.471 22.3058 28.2995 15.1086 28.2995C7.91144 28.2995 2.07812 22.4664 2.07812 15.2741C2.07812 8.08182 7.91144 2.24414 15.1086 2.24414ZM13.261 9.43181C13.155 9.55621 13.1872 9.40878 13.1964 9.64376C13.5374 9.6668 13.3807 9.65297 13.4683 9.55161L13.261 9.43181ZM13.4683 9.55621L13.4867 9.41338L13.39 9.37192H13.3807H13.3116L13.4729 9.56083L13.4683 9.55621ZM3.85208 10.8694C3.85208 10.9569 3.84286 11.049 3.84286 11.1412C4.93028 11.5605 3.96267 11.7033 4.50637 12.6202C4.75519 13.0395 4.69068 13.2007 5.25281 13.2238C5.28507 12.7953 5.17909 12.7584 4.96714 12.4451C4.82891 12.2424 4.66764 11.754 4.78744 11.5236C5.25281 11.5236 4.9441 12.0212 5.22977 12.4221C5.34496 12.5833 5.75966 13.1178 5.74584 13.2606C5.71819 13.5832 5.46016 13.4818 5.98543 14.1176C6.17435 14.348 6.70884 14.3618 7.01295 14.4724C7.31705 14.3802 6.89315 14.2881 7.47371 14.3664L7.5244 14.5553C7.60273 14.7535 7.81929 14.7442 8.04046 14.7995C8.63024 14.947 8.70857 15.5091 9.12787 15.7026C9.27992 15.7763 9.83284 15.7809 10.031 15.7855L10.1139 16.5918C9.91117 16.684 9.63932 16.8867 9.46423 17.0019C9.45501 17.3429 9.4504 17.5686 9.3905 17.8727C9.27992 18.4533 10.2061 18.7435 10.3351 19.6696C10.865 19.7986 11.146 20.0244 11.4593 20.3193V22.3005C11.5423 22.5355 11.5146 22.3236 11.7082 22.5309C11.5331 23.1667 11.4594 23.3648 11.8141 23.7933C12.1735 24.2264 11.699 24.6688 11.9938 25.1894C12.3809 25.8713 12.9568 26.8619 13.9106 26.5809C14.0074 26.2307 13.625 26.1432 13.4499 25.9174L13.6111 25.1572C13.1688 25.1295 13.2379 25.2124 13.072 24.9222C13.2103 24.6688 13.2978 24.7932 13.3761 24.4568C13.261 24.3278 13.155 24.3693 13.072 24.2218C13.178 23.9592 13.1365 24.2218 14.0489 23.7979C14.4451 23.6136 14.4313 23.3602 14.6939 23.0423C15.9334 21.5403 14.7308 22.2038 15.362 21.0887C15.8919 21.0887 15.9288 21.2316 16.3158 20.9321C16.8734 20.4944 16.4218 19.6051 16.8734 19.0384C17.1636 18.679 17.1867 18.7481 17.3203 18.2137C17.1452 18.0524 16.9886 18.1215 16.8273 17.9603C16.6522 17.7852 16.7029 17.6147 16.4587 17.4903C16.1223 17.4903 15.703 17.5364 15.4035 17.4534C15.1409 17.3797 14.8736 17.2369 14.6018 17.154C14.5649 16.6103 14.5695 16.3845 14.2424 16.0297L13.4683 16.0113C13.39 15.8362 13.2932 15.675 13.1688 15.4907C12.9799 15.2004 12.9753 15.3156 12.7126 15.1359L12.5836 15.3524H11.9017C11.5653 14.9101 11.3902 14.9009 10.8235 14.8548C10.7267 15.0391 10.3858 15.44 10.2199 15.5552L9.28913 15.3893L9.22002 14.2927L8.52426 14.1637C8.66249 13.7951 8.87905 13.703 8.69014 13.3436C7.90684 13.6707 8.19251 14.0024 7.20186 13.855C7.01755 13.5693 6.93001 13.3758 7.08206 12.9796C7.53361 11.8001 8.43672 11.9429 9.61628 11.9521L9.6255 12.4129L10.1369 12.6294L10.1001 11.9014C10.4595 11.5651 10.5747 11.4683 11.0354 11.155C11.5008 10.8417 10.9156 11.0398 11.745 10.1736C12.086 9.81884 12.5375 9.69905 12.7495 9.48711L12.8923 9.27977C12.8923 9.27977 12.9108 9.25673 12.92 9.24751C13.1642 8.96185 13.3024 8.80059 13.648 9.03096L13.8093 8.80981C13.6803 8.74069 13.5282 8.72687 13.413 8.63472V8.44581C13.7862 8.27073 13.8369 8.35827 14.0581 8.6255C14.5419 8.60246 14.4313 8.57482 14.6018 8.47807C14.7953 8.37209 14.4405 8.39974 14.8183 8.40896C14.8552 8.96185 14.6386 8.44581 14.6709 8.9296C14.8137 9.07243 15.3022 9.19683 15.5003 9.19683C15.6247 8.58864 15.2422 8.98028 15.1731 8.6255C15.0948 8.21083 15.4542 8.6808 15.422 7.93899L15.0994 7.71322C14.8921 7.54735 14.9566 7.18336 14.9427 6.92534C14.5972 7.03131 14.4497 7.22022 14.0673 7.22943L14.118 6.66732C12.814 6.41391 13.5328 6.42313 12.8923 6.70879L12.8785 7.56117C12.6297 7.65793 12.2933 7.68558 12.1781 7.86527C12.0031 8.1325 12.1321 8.32602 11.6851 8.33984C11.6851 7.25708 11.639 7.86527 10.9848 7.5151C10.7359 7.38149 10.6991 7.22022 10.676 6.8977C11.2981 6.61203 11.51 6.35862 12.2519 6.15128L12.344 6.48302C12.9338 6.50145 12.3348 6.32637 12.9845 6.26187L12.8555 6.04531C12.791 5.87484 12.8785 6.27569 12.8232 5.93473C13.5558 5.92552 13.1688 5.63985 13.7171 5.55692C14.3345 5.46477 14.3115 5.42791 14.6294 5.78269L13.777 6.26647C14.0443 6.44156 14.5834 6.51067 14.9566 6.56596C15.0718 6.11903 15.21 6.18354 15.6155 6.17432L15.7767 5.84719L15.4312 5.70436L15.4173 5.26665C14.353 4.94412 14.3069 4.44652 13.0352 5.10078L13.0628 5.6675C12.8555 5.64907 12.7449 5.63525 12.5836 5.5431L12.5283 5.2344C12.6804 5.14685 12.8278 5.03628 12.9154 4.87962C12.6712 4.83815 11.874 4.69072 11.851 5.07774C11.8418 5.2344 12.1505 5.12842 12.0491 5.51545L11.5423 5.55231C11.4133 5.82876 11.3442 5.82416 10.7037 5.76426L10.676 5.3588C11.1921 5.34958 11.4041 5.34498 11.6713 4.89344C11.123 4.60317 11.6621 5.13303 10.5701 5.07314C10.4779 4.90266 10.3765 4.78286 10.2706 4.6216C9.71304 4.61699 9.5702 4.60778 9.16473 4.90266L8.89748 5.16068H9.49187C9.5702 5.40027 9.50109 5.37723 9.3905 5.55231C9.95725 5.48781 10.1047 5.46016 10.2061 5.78729L9.45501 5.77347C9.24766 5.47398 9.54256 5.64907 9.23384 5.53388C9.1509 5.50163 8.98042 5.48781 8.86523 5.44173C8.57955 5.33115 8.47358 5.31272 8.2478 5.2989C6.28032 6.65811 4.73676 8.58864 3.85208 10.8463V10.8694ZM13.307 9.3627C13.2195 9.35809 13.2425 9.33966 13.2656 9.43181L13.307 9.3627ZM13.7217 9.3627C13.8415 9.92942 14.224 9.35349 14.2286 9.34888C14.4037 9.18301 14.2885 9.45485 14.4083 9.18761C14.399 9.18301 14.3944 9.1139 14.2424 9.13233C14.0673 9.15076 14.1641 9.23369 13.9429 9.30741C13.7862 9.3581 13.8968 9.26133 13.7217 9.36731V9.3627ZM20.131 8.39513C20.4858 8.40434 20.4443 8.39974 20.6839 8.22465C20.9235 8.05418 21.0065 8.08182 20.9143 7.75469C20.4259 7.5151 20.1356 7.92977 20.131 8.39513ZM20.9604 8.54717C21.6746 8.63011 21.799 8.52875 22.0017 8.2523L21.5548 7.81919C21.3705 7.54274 21.4258 7.38609 21.2967 7.13729C20.7438 7.16954 20.601 7.48285 21.0525 7.73626C21.5456 8.01271 21.1861 8.0726 21.1861 8.0726C21.0249 8.1924 21.094 8.0035 20.9926 8.23387C20.965 8.29837 20.965 8.46424 20.965 8.54257L20.9604 8.54717ZM23.1674 6.26647C23.0799 6.45077 22.9601 6.38627 22.6652 6.53371C22.4164 6.65811 22.3012 6.79633 22.3519 7.0866C22.7021 7.34923 22.6099 7.0221 22.8127 7.61186L23.3379 7.42756L23.3978 8.0035C22.9048 7.99428 22.5086 7.79615 22.2367 8.20161C21.9096 8.69001 22.0432 8.65315 21.3059 8.73148L21.2138 9.24291L21.4626 9.41799L21.3889 9.68522C20.9604 9.60229 20.6194 9.50553 20.1955 9.70826C20.1586 9.74512 19.7255 10.8187 20.7116 10.8555C20.9788 10.8647 21.2138 10.8279 21.4718 10.8187C21.5916 10.4409 22.0846 9.82345 22.1353 9.7912C22.3934 9.71748 22.4348 9.84188 22.6099 9.78659C22.6929 9.75894 22.8495 9.56543 22.9371 9.49632C23.2873 9.96168 22.9463 9.68523 23.7204 10.2059C23.8494 10.2934 23.9185 10.3118 23.9554 10.4501C23.7664 10.5975 23.7572 10.5146 23.4716 10.5468C23.6513 10.8924 23.7895 10.8555 24.1904 10.685C24.1996 10.3072 24.1811 10.4593 24.2871 10.1506C23.6282 9.82345 23.5591 9.85109 23.4255 9.3028C23.8125 9.3028 23.8494 9.2383 24.0798 9.43181C25.1257 10.3118 24.0567 9.9801 25.0105 10.8095C25.3238 10.4731 24.9322 10.2473 25.5542 10.0031C25.6233 10.6897 25.6464 10.4685 25.8952 10.8786L26.3698 10.8878C25.674 9.10007 24.5682 7.52431 23.1628 6.26647H23.1674ZM26.7246 11.9153C26.3836 11.9475 25.9182 11.9383 25.7017 11.7862C25.2778 11.496 25.3331 11.4176 24.6419 11.5374L24.6235 11.906C24.6235 11.906 23.1905 11.4683 23.1721 11.4591L23.1444 10.7818C22.2966 10.768 22.0247 10.8325 21.4211 11.0536C20.7899 11.2886 20.6424 10.7956 19.8638 11.4545C19.8499 12.3299 19.9283 12.0581 19.2095 12.5787C18.9929 12.7354 18.7118 12.9704 18.4999 13.0809C18.569 13.6246 18.6888 13.468 18.8547 13.6154C18.7625 14.2006 18.6704 13.8043 18.6105 14.0808C18.6105 15.1405 18.44 14.8594 19.0067 15.4953C19.4168 15.956 19.6011 16.3615 20.0066 16.3615C20.1679 16.3615 20.2784 16.32 20.3752 16.3062C20.5319 16.2831 20.6655 16.2877 20.8268 16.2877C21.5271 16.3016 21.1954 16.1772 21.5363 16.0666C22.2643 15.8362 21.6469 16.3477 23.0476 16.4075C22.9739 17.5364 22.8357 17.2507 23.3471 18.1446C23.9139 19.1398 23.8862 18.8127 23.4716 19.5821C23.0753 20.3193 23.6835 20.2963 23.7388 20.7248C23.7572 20.8768 23.7342 21.1486 23.7388 21.3145C23.7434 21.7476 23.9093 21.7707 24.0982 22.0655C24.3055 22.3927 24.1443 22.6369 24.2318 23.0377L24.3516 23.0469C26.121 20.9459 27.1899 18.2275 27.1899 15.2649C27.1899 14.0992 27.0241 12.975 26.7154 11.9106L26.7246 11.9153Z" fill="#003366"/>
</svg>
